<svg width="120" height="120" viewBox="0 0 120 120" fill="none" xmlns="http://www.w3.org/2000/svg">
  <rect width="120" height="120" rx="30" fill="#ddb36d"/>
  <path d="M42 78C42 66.9543 51.9543 57 63 57H72C83.0457 57 93 66.9543 93 78V84H42V78Z" fill="#2a1f14"/>
  <path d="M54 51C54 46.5817 57.5817 43 62 43H73C77.4183 43 81 46.5817 81 51V54H54V51Z" fill="#2a1f14"/>
  <path d="M60 35C60 31.6863 62.6863 29 66 29H69C72.3137 29 75 31.6863 75 35V37H60V35Z" fill="#2a1f14"/>
  <text x="18" y="95" fill="#2a1f14" font-family="Inter, sans-serif" font-size="32" font-weight="700">KC</text>
</svg>
